#!OML:ASF F:\VICON\USERDATA\INSTALL\rory3\rory3.ASF
:FULLY-SPECIFIED
:DEGREES
4306
root 16.3106 17.8718 -7.30928 1080.36 42.5029 1.57781
lowerback 9.28668 0.335589 0.776438
upperback 1.40661 0.596716 1.26838
thorax -3.75179 0.301629 0.803739
lowerneck -9.84322 -2.0753 -13.2459
upperneck 44.0287 0.92075 2.70796
head 18.2419 -1.07343 3.97843
rclavicle 9.96905e-014 -1.35174e-014
rhumerus -36.2578 -12.539 -74.8304
rradius 41.2657
rwrist 0.0977703
rhand -18.1705 6.2162
rfingers 7.12502
rthumb 8.10582 -23.6083
lclavicle 9.96905e-014 -1.35174e-014
lhumerus -35.9595 12.6707 70.8885
lradius 45.8818
lwrist -4.91508
lhand -22.5238 29.5646
lfingers 7.12502
lthumb 3.90296 59.5086
rfemur -7.03097 7.90633 15.5498
rtibia 30.8865
rfoot -19.656 17.6643
rtoes 4.63061
lfemur -14.6805 -17.3156 -17.2273
ltibia 21.6594
lfoot 5.08032 -34.6673
ltoes 20.6138
4307
root 16.2569 17.8724 -7.2918 1080.37 43.3387 1.46804
lowerback 9.29999 0.463658 0.767152
upperback 1.48634 0.76868 1.32537
thorax -3.67881 0.388046 0.846945
lowerneck -9.92614 -2.0866 -13.2448
upperneck 43.9398 0.943023 2.70892
head 18.2066 -1.05047 3.98266
rclavicle -5.26779e-015 -6.36111e-015
rhumerus -36.1233 -12.4708 -74.9289
rradius 41.5659
rwrist -0.0223848
rhand -18.1204 6.56884
rfingers 7.12502
rthumb 8.15413 -23.2538
lclavicle -5.26779e-015 -6.36111e-015
lhumerus -35.9814 12.8631 71.0872
lradius 45.9186
lwrist -4.776
lhand -22.7547 30.5001
lfingers 7.12502
lthumb 3.67994 60.4481
rfemur -6.87951 7.05954 15.9041
rtibia 30.5862
rfoot -19.8388 16.9736
rtoes 4.36895
lfemur -14.9465 -17.8029 -16.8971
ltibia 21.4826
lfoot 5.81456 -34.6441
ltoes 21.4073
4308
root 16.2023 17.8784 -7.27648 1080.51 44.14 1.36466
lowerback 9.15824 0.588281 0.780808
upperback 1.56362 0.933931 1.34939
thorax -3.52155 0.470663 0.845541
lowerneck -10.0003 -2.12449 -13.2449
upperneck 43.8378 0.904032 2.74275
head 18.1675 -1.04881 3.9915
rclavicle -3.10104e-014 1.27222e-014
rhumerus -35.8835 -12.4127 -75.0695
rradius 41.8328
rwrist -0.235217
rhand -17.8444 6.33758
rfingers 7.12502
rthumb 8.42053 -23.4746
lclavicle -3.10104e-014 1.27222e-014
lhumerus -35.9542 13.2836 71.1665
lradius 45.8628
lwrist -4.70021
lhand -23.0381 30.9778
lfingers 7.12502
lthumb 3.40626 60.9303
rfemur -6.88273 6.45081 16.2553
rtibia 30.2851
rfoot -20.0348 16.0288
rtoes 3.73638
lfemur -15.3507 -18.1822 -16.534
ltibia 21.3032
lfoot 6.49986 -34.7191
ltoes 22.2635
4309
root 16.1442 17.8857 -7.26105 1080.53 44.9331 1.06071
lowerback 9.0934 0.729963 0.924877
upperback 1.60143 1.13808 1.41846
thorax -3.44692 0.571291 0.812585
lowerneck -10.1024 -2.21573 -13.2887
upperneck 43.8204 0.793139 2.81443
head 18.1985 -1.08269 4.01922
rclavicle 3.65764e-014 -7.95139e-015
rhumerus -35.6931 -12.3677 -75.1707
rradius 41.9494
rwrist -0.311185
rhand -17.9242 6.10657
rfingers 7.12502
rthumb 8.34345 -23.7086
lclavicle 3.65764e-014 -7.95139e-015
lhumerus -35.9862 13.3211 71.4149
lradius 45.7855
lwrist -5.06354
lhand -23.0287 31.0056
lfingers 7.12502
lthumb 3.41539 60.958
rfemur -6.89876 6.06803 16.7797
rtibia 29.9436
rfoot -19.9903 15.0402
rtoes 3.64032
lfemur -15.8209 -18.4743 -16.0011
ltibia 21.1996
lfoot 7.51435 -34.6876
ltoes 23.5745
4310
root 16.0856 17.892 -7.24448 1080.42 45.725 0.708869
lowerback 9.40948 0.878832 1.20654
upperback 1.4271 1.37264 1.41624
thorax -3.79903 0.682409 0.617526
lowerneck -9.94568 -2.26054 -13.2244
upperneck 43.9081 0.675069 2.94162
head 18.2207 -1.09335 4.05558
rclavicle -7.58364e-014 -1.98785e-014
rhumerus -35.9272 -12.4026 -75.2556
rradius 42.0612
rwrist -0.238802
rhand -18.1169 5.85293
rfingers 7.12502
rthumb 8.15751 -23.9696
lclavicle -7.58364e-014 -1.98785e-014
lhumerus -36.349 12.842 71.5485
lradius 45.9607
lwrist -4.92444
lhand -22.186 31.1316
lfingers 7.12502
lthumb 4.22918 61.0694
rfemur -6.83818 5.95131 17.3411
rtibia 29.5935
rfoot -19.7792 14.1305
rtoes 4.09749
lfemur -16.2279 -18.9909 -15.4434
ltibia 21.1662
lfoot 8.07571 -34.4265
ltoes 24.1341
4311
root 16.025 17.8972 -7.22996 1080.28 46.5006 0.319088
lowerback 9.81602 1.05834 1.596
upperback 1.21705 1.66251 1.36582
thorax -4.23235 0.816261 0.299746
lowerneck -9.71437 -2.33234 -13.0966
upperneck 43.9898 0.502699 3.03539
head 18.2257 -1.11771 4.05458
rclavicle 1.98785e-016 1.43125e-014
rhumerus -36.2501 -12.5713 -75.3418
rradius 42.2744
rwrist -0.418159
rhand -18.0388 5.48299
rfingers 7.12502
rthumb 8.23287 -24.3366
lclavicle 1.98785e-016 1.43125e-014
lhumerus -36.7143 12.3851 71.6138
lradius 46.0957
lwrist -5.23845
lhand -21.6239 30.4845
lfingers 7.12502
lthumb 4.77193 60.4108
rfemur -6.78615 5.88193 17.9108
rtibia 29.2476
rfoot -19.6803 13.3085
rtoes 4.12424
lfemur -16.6768 -19.32 -14.9057
ltibia 21.2149
lfoot 7.68506 -34.552
ltoes 23.1313
4312
root 15.9621 17.8959 -7.216 1080.24 47.2522 0.0517297
lowerback 9.96734 1.23393 1.75063
upperback 1.16909 1.91706 1.35204
thorax -4.35989 0.938281 0.160748
lowerneck -9.55225 -2.45188 -12.9538
upperneck 43.882 0.271408 3.04161
head 18.1402 -1.17054 3.98903
rclavicle 4.1049e-014 -7.15625e-015
rhumerus -36.2988 -12.6545 -75.527
rradius 42.491
rwrist -0.779742
rhand -18.5163 5.58238
rfingers 7.12502
rthumb 7.77206 -24.2548
lclavicle 4.1049e-014 -7.15625e-015
lhumerus -36.8747 11.0798 72.5249
lradius 46.6462
lwrist -2.54402
lhand -25.489 32.5201
lfingers 7.12502
lthumb 1.0393 62.4973
rfemur -6.80592 5.93891 18.3454
rtibia 28.9266
rfoot -19.4324 12.8112
rtoes 5.34892
lfemur -17.1791 -19.4677 -14.4859
ltibia 21.3284
lfoot 7.36959 -34.7223
ltoes 22.8083
4313
root 15.9032 17.8962 -7.1991 1080.27 47.9282 -0.0866342
lowerback 9.92582 1.40117 1.69407
upperback 1.24271 2.13217 1.37288
thorax -4.26105 1.04729 0.187422
lowerneck -9.42015 -2.51848 -12.774
upperneck 43.6682 0.124354 2.99321
head 17.9863 -1.18816 3.8994
rclavicle -6.05299e-014 -1.35174e-014
rhumerus -36.0602 -12.7483 -75.6718
rradius 42.4763
rwrist -0.809939
rhand -18.925 6.17743
rfingers 7.12502
rthumb 7.3775 -23.6739
lclavicle -6.05299e-014 -1.35174e-014
lhumerus -36.9888 10.4986 72.923
lradius 46.8684
lwrist -1.85556
lhand -26.5581 33.6111
lfingers 7.12502
lthumb 0.00672895 63.5908
rfemur -6.83799 6.12056 18.6746
rtibia 28.6654
rfoot -19.2309 12.3711
rtoes 6.20396
lfemur -17.5912 -19.6766 -14.1921
ltibia 21.4443
lfoot 6.64453 -34.7391
ltoes 22.1132
4314
root 15.8463 17.9022 -7.18273 1080.28 48.5793 -0.221438
lowerback 9.95202 1.55933 1.70454
upperback 1.27986 2.34381 1.37144
thorax -4.2349 1.15242 0.151722
lowerneck -9.28001 -2.53966 -12.5677
upperneck 43.5355 0.0531725 2.9419
head 17.8708 -1.17364 3.82108
rclavicle 3.21037e-014 -2.46493e-014
rhumerus -35.8254 -12.7694 -75.7594
rradius 42.4274
rwrist -0.90682
rhand -18.6891 6.48951
rfingers 7.12502
rthumb 7.6052 -23.3537
lclavicle 3.21037e-014 -2.46493e-014
lhumerus -37.139 10.5186 73.0597
lradius 46.9331
lwrist -2.3214
lhand -26.2669 34.3361
lfingers 7.12502
lthumb 0.287975 64.3156
rfemur -6.86715 6.48962 19.0442
rtibia 28.5246
rfoot -19.3325 11.4261
rtoes 4.66225
lfemur -17.9536 -19.9469 -13.9092
ltibia 21.5029
lfoot 5.73108 -34.5453
ltoes 20.9362
4315
root 15.7858 17.9075 -7.16074 1080.34 49.2429 -0.270735
lowerback 10.006 1.67995 1.56381
upperback 1.34226 2.48992 1.37631
thorax -4.20494 1.22782 0.215575
lowerneck -9.29852 -2.54405 -12.4122
upperneck 43.4855 0.0411771 2.91439
head 17.8425 -1.14662 3.77864
rclavicle -4.62174e-014 -3.18055e-015
rhumerus -35.5289 -12.5114 -75.9684
rradius 42.4671
rwrist -1.34195
rhand -18.571 6.38351
rfingers 7.12502
rthumb 7.71919 -23.4556
lclavicle -4.62174e-014 -3.18055e-015
lhumerus -37.2284 11.1273 73.1182
lradius 46.7721
lwrist -3.33867
lhand -25.7698 33.5903
lfingers 7.12502
lthumb 0.768077 63.5687
rfemur -6.90682 7.25992 19.4095
rtibia 28.4886
rfoot -19.3651 10.1664
rtoes 3.91978
lfemur -18.2776 -20.2987 -13.6514
ltibia 21.5197
lfoot 5.19061 -34.0656
ltoes 19.7458
